<svg xmlns="http://www.w3.org/2000/svg" version="1.1" viewBox="13.88 7.14 72.25 85.71">  <path d="m75.41 7.1445h-50.82c-5.9297 0-10.715 4.8203-10.715 10.715v64.285c0 5.9297 4.7852 10.715 10.715 10.715h40.105c0.92969 0 1.8555-0.35547 2.5-1.0352l17.855-17.855c0.67969-0.68359 1.0742-1.5742 1.0742-2.5391v-53.574c0-5.8906-4.8203-10.711-10.715-10.711zm-25.43 19.641c3.9648 0 7.1445 3.2148 7.1445 7.1445 0 3.9648-3.1797 7.1445-7.1445 7.1445-3.9297 0-7.1445-3.1797-7.1445-7.1445 0.003906-3.9297 3.2188-7.1445 7.1445-7.1445zm7.1484 50.004h-25.41c-1.9727 0-3.5703-1.5977-3.5703-3.5703s1.5977-3.5703 3.5703-3.5703h25.41c1.9727 0 3.5703 1.5977 3.5703 3.5703s-1.5977 3.5703-3.5703 3.5703zm11.125-16.07h-36.535c-1.9727 0-3.5703-1.5977-3.5703-3.5703 0-1.9727 1.5977-3.5703 3.5703-3.5703h36.535c1.9727 0 3.5703 1.5977 3.5703 3.5703 0 1.9688-1.5977 3.5703-3.5703 3.5703z"/> </svg>